<svg width="13" height="15" viewBox="0 0 13 15" fill="none" xmlns="http://www.w3.org/2000/svg">
<path d="M4.33333 1.42857V0H8.66667V1.42857H4.33333ZM5.77778 9.28571H7.22222V5H5.77778V9.28571ZM6.5 15C5.60926 15 4.76956 14.8305 3.98089 14.4914C3.19222 14.1524 2.50322 13.6909 1.91389 13.1071C1.32456 12.5233 0.858241 11.8417 0.514944 11.0621C0.171648 10.2826 0 9.45238 0 8.57143C0 7.69047 0.171648 6.86 0.514944 6.08C0.858241 5.3 1.32456 4.61857 1.91389 4.03571C2.50322 3.45286 3.19246 2.99167 3.98161 2.65214C4.77076 2.31262 5.61022 2.14286 6.5 2.14286C7.2463 2.14286 7.9625 2.2619 8.64861 2.5C9.33472 2.73809 9.9787 3.08333 10.5806 3.53571L11.5917 2.53571L12.6028 3.53571L11.5917 4.53571C12.0491 5.13095 12.3981 5.76786 12.6389 6.44643C12.8796 7.125 13 7.83333 13 8.57143C13 9.45238 12.8284 10.2829 12.4851 11.0629C12.1418 11.8429 11.6754 12.5243 11.0861 13.1071C10.4968 13.69 9.80754 14.1514 9.01839 14.4914C8.22924 14.8314 7.38978 15.0009 6.5 15Z" fill="#FEFFEF"/>
</svg>
