<svg width="131" height="150" viewBox="0 0 131 150" fill="none" xmlns="http://www.w3.org/2000/svg">
<path d="M77.4909 2.81909C80.924 4.39541 84.6802 6.45456 87.0163 9.46873C90.3393 13.7574 93.0552 18.987 94.6102 24.1952C94.8765 25.0828 94.9262 26.5845 95.1747 27.1419C95.3522 27.5395 97.7664 29.2614 98.3096 29.7727C99.8327 31.207 101.313 32.7123 102.818 34.1643C107.949 39.1098 114.034 44.5417 118.756 49.7003C119.228 50.2186 119.182 50.6801 119.37 50.9677V74.9178C119.43 75.7556 120.438 75.5284 120.932 75.7982C121.212 75.9509 121.258 76.3414 121.532 76.5047C122.299 76.9592 123.19 77.2112 123.886 77.797C123.974 77.8751 124.049 77.971 124.138 78.0491C124.649 78.5 125.206 78.9047 125.643 79.3023C125.728 79.3804 125.806 79.4727 125.895 79.5544C126.939 80.5236 127.251 81.3508 128.654 82.0609C128.959 82.4798 128.977 82.5828 129.406 83.0656C129.484 83.1544 129.573 83.236 129.658 83.3177C130.06 83.6975 130.383 84.0916 130.912 84.3224C130.94 84.3934 130.89 84.4964 130.912 84.5745V84.8265C130.773 84.9543 130.532 85.3768 130.411 85.5792L129.406 86.5839C129.325 86.6052 129.225 86.5555 129.154 86.5839C127.858 87.0951 127.677 87.7981 127.148 88.8419C126.932 89.0016 126.271 88.9697 126.144 89.5945C111.407 103.945 97.1096 118.753 82.511 133.227C81.2506 134.477 80.008 135.741 78.7477 136.99C75.9288 139.788 73.1951 142.795 70.3549 145.525C68.775 147.045 66.794 148.319 65.2958 149.992C64.9123 150.066 64.4863 149.629 64.1987 149.406C61.7384 147.51 58.568 143.374 56.0615 140.995C55.6213 140.58 55.0533 140.345 54.6769 139.998C54.5243 139.856 54.3645 139.671 54.1764 139.497C53.6261 138.986 53.1752 138.109 52.4225 137.743C52.3267 137.399 52.2876 137.441 52.1705 137.243C51.4427 135.986 44.1859 128.97 42.8936 128.214C42.7552 127.263 42.2262 127.568 42.141 127.462C41.1433 126.23 40.7173 125.228 39.1304 124.451C38.2215 123.212 37.6037 122.15 36.1197 121.44C36.0416 121.305 36.0878 121.036 35.889 120.798C35.6085 120.464 35.3458 120.553 35.115 120.439C34.5683 119.104 32.0937 116.985 30.8511 116.175C30.6878 115.881 30.7766 115.639 30.3648 115.277C30.0417 114.99 29.7541 115.025 29.5944 114.922C28.579 113.364 28.3127 113.498 27.0879 112.416C26.9991 112.337 26.9246 112.242 26.8358 112.164L26.0832 111.411C25.1246 110.324 25.1565 110.158 23.8252 109.153C23.353 107.946 22.011 106.998 21.0666 106.142L0.365074 85.3307C0.155609 85.1354 -0.0254547 84.8691 0.00294741 84.5709C0.0171484 84.4218 0.59229 83.9638 0.755602 83.8183C0.851459 83.7437 0.918914 83.6407 1.00767 83.5662C1.64672 83.0266 1.99109 82.3698 2.51298 81.8124C2.59464 81.7271 2.68339 81.649 2.76505 81.5603L8.37091 76.8882L11.3034 75.3757L11.2928 50.9677C11.3034 50.8861 11.2786 50.7973 11.2928 50.7156C11.7082 50.5985 11.8182 50.2115 12.0454 49.963C12.5709 49.3914 12.72 49.3949 13.0501 48.7097C14.6691 47.9855 16.9554 45.0672 18.3152 43.6932C18.7306 43.2743 19.153 42.8589 19.5684 42.44L21.3223 40.6862C21.5956 40.4305 21.8583 40.1288 22.0749 39.9335C22.6891 39.3797 23.4063 38.9217 23.8287 38.1797C23.9175 38.1016 23.992 38.0057 24.0808 37.9276C24.6701 37.4057 24.9187 36.8306 25.0855 36.6744C25.153 36.6105 25.4832 36.5111 25.8382 36.1738C26.1009 35.9217 26.3352 35.6696 26.5908 35.4211L27.3435 34.6685C27.5956 34.4199 27.8476 34.1572 28.0961 33.9158C28.3447 33.6744 28.6003 33.4046 28.8488 33.1632C28.934 33.0815 29.0157 32.9927 29.1009 32.9111C29.4417 32.5774 29.7612 32.2365 30.1056 31.9064C30.1908 31.8247 30.2725 31.736 30.3577 31.6543L32.1115 29.9005C32.7718 29.2898 35.2038 27.6212 35.5517 27.0745C35.7328 26.7904 35.8748 25.491 36.0558 24.9443C37.0499 21.9443 37.9907 18.2059 39.7801 15.6284C40.2664 14.929 41.4025 13.9492 41.7469 13.3314C42.2901 12.3586 42.5173 10.9314 43.2842 9.85571C44.2392 8.51726 47.4983 5.80486 48.9113 4.82499C49.277 4.82144 49.5539 4.68298 49.664 4.3244C49.7279 4.2889 49.8521 4.35991 49.916 4.3244C52.7705 2.70549 55.8521 1.62266 58.9444 0.561129C59.026 0.546928 59.1148 0.57533 59.1964 0.561129C65.9916 -0.585605 71.2815 -0.0424153 77.5016 2.81909H77.4909ZM57.4284 137.232C60.1124 139.93 62.7467 142.703 65.3277 145.504L125.629 84.4289C125.668 84.2478 124.031 82.7638 123.761 82.5615C121.961 81.2159 119.927 79.4053 118.031 78.2586C113.224 75.3544 108.009 73.8633 102.897 71.8255C98.4197 70.0397 97.8161 66.3758 94.4079 63.5108C92.2422 61.6895 87.4778 59.0232 84.9464 57.6635C84.4317 57.3866 82.7772 56.9818 82.6068 56.7404C82.4684 56.5452 82.7666 54.8765 82.7701 54.3405C82.7701 53.9748 82.4577 53.0482 82.5074 52.9843C82.5358 52.9487 83.1074 52.86 83.3417 52.6896C86.2849 50.563 85.9299 44.6376 86.8352 41.6305C87.4494 39.5891 89.5902 37.2602 90.4671 34.9809C92.5724 29.5028 91.5286 22.0615 87.8328 17.4213C87.3287 16.7894 86.189 16.2 85.9015 15.5929C85.6139 14.9858 85.6174 13.9563 85.3121 13.1752C83.3133 8.07703 70.472 3.5398 65.3242 3.55045C59.5372 3.5611 47.5196 7.84981 45.2688 13.6083C44.9883 14.329 44.9954 15.3125 44.6084 15.9551C44.1788 16.6722 43.1741 17.1195 42.496 18.355C38.6972 25.2603 37.6108 30.7348 41.4984 37.9312C42.1268 39.0956 43.3907 40.466 43.8096 41.6412C44.2534 42.8838 43.9942 43.8494 44.2072 45.0068C44.4664 46.4198 45.6557 51.7097 46.5113 52.4837C46.838 52.7783 47.6013 52.899 47.6581 53.144C47.7539 53.5345 47.6936 56.4635 47.5267 56.7404C47.3776 56.9854 43.1847 59.0268 42.464 59.4528C40.1351 60.8339 37.3446 62.5558 35.4771 64.5013C33.9505 66.0883 32.6902 68.5912 31.2346 70.0361C29.6334 71.6267 23.8536 73.1959 21.4004 74.2468C15.4253 76.8065 9.80876 80.0337 5.01946 84.4538L14.2998 94.2241C21.3187 100.678 27.624 107.896 34.6109 114.411C36.702 116.655 38.967 118.756 41.1291 120.929C41.296 121.096 41.4629 121.263 41.6297 121.43C41.7824 121.863 41.8428 122.275 42.3824 122.182C42.464 122.268 42.5493 122.349 42.6345 122.434C46.8841 126.709 51.1657 130.959 55.4225 135.222C55.5077 135.308 55.5894 135.389 55.6746 135.475C56.2568 136.057 56.8497 136.646 57.4284 137.228V137.232ZM15.5495 52.8493C15.6099 59.3676 15.5495 65.8895 15.5495 72.4077C15.5495 72.4645 15.1803 72.7201 15.301 73.0361C19.0749 71.1048 23.1577 69.6847 26.9246 67.7356C30.7553 65.751 30.0985 65.3037 32.6085 62.3853C34.373 60.3368 37.0996 58.5866 39.3931 57.1345C40.1138 56.6765 43.3303 55.1002 43.5149 54.731C44.0404 53.6659 41.612 49.0506 41.2002 47.5098C40.7706 45.8944 40.838 44.2045 40.4546 42.7382C39.9576 40.8246 37.3552 37.4874 36.5671 35.343C36.1481 34.2105 35.9245 32.8685 35.8606 31.6614C35.4771 31.5691 35.5304 31.6401 35.3387 31.8283C33.6878 33.4365 32.2038 35.1726 30.6026 36.8093C25.5329 41.9962 20.1116 46.9772 15.3081 52.3417C15.3188 52.5831 15.5495 52.7783 15.5495 52.8529V52.8493ZM115.358 52.473C115.33 52.1428 115.454 51.7878 115.23 51.4789C108.119 45.4293 101.906 38.3749 95.1676 31.9135C94.6138 31.8354 94.8694 31.9916 94.802 32.2898C94.2943 34.459 93.8292 36.3264 92.8351 38.3536C92.1677 39.7169 90.7902 41.2755 90.3535 42.6423C89.8494 44.2151 90.034 46.079 89.6683 47.7263C89.4233 48.8234 86.7074 54.6316 87.0234 54.9831C89.8778 55.9949 93.1262 58.0363 95.5262 59.8966C97.6599 61.551 98.6895 63.2268 100.433 65.0196C102.421 67.0646 107.597 69.2373 110.341 70.2811C110.76 70.9237 115.067 72.8195 115.354 72.5391C115.369 71.7048 115.34 70.8634 115.354 70.0291C115.362 69.6953 115.354 69.3616 115.354 69.0243C115.376 66.6883 115.354 64.338 115.354 62.0019C115.354 59.0161 115.472 55.9523 115.354 52.9736C115.347 52.8067 115.369 52.6363 115.354 52.473H115.358Z" fill="#E5DCB4"/>
<path d="M110.061 23.4103C110.15 23.4671 110.565 24.905 110.835 25.2707C111.357 25.9701 112.12 26.0091 112.685 26.4316C113.874 27.3263 112.007 27.2588 111.211 27.8908C110.508 28.4517 110.48 29.1653 110.051 29.7404C109.039 31.0895 109.269 28.6257 108.595 28.015C108.318 27.4008 106.472 27.4434 106.571 26.7653C106.713 25.8352 108.148 26.0056 108.705 25.3843C109.262 24.763 109.106 22.8174 110.061 23.4103Z" fill="#FEFFEF"/>
<path d="M21.067 29.9038C20.7474 29.9393 20.364 29.8505 20.0622 29.9038C20.1475 29.286 19.835 28.8884 19.5617 28.3985C19.5155 28.3168 19.6433 28.1144 19.3948 27.8837C19.2279 27.7275 17.3037 26.9358 17.0552 26.8932C17.1865 25.9062 18.7202 26.1405 19.4232 25.3736C19.9309 24.8198 19.8812 23.9109 20.4386 23.3855C21.2764 25.2671 22.1746 25.7216 23.8184 26.7653C23.2255 27.3937 22.2421 27.4647 21.6776 28.1286C21.1131 28.7925 21.2764 29.2754 21.067 29.9002V29.9038Z" fill="#FEFFEF"/>
<path d="M26.836 112.156C26.4952 111.855 26.3851 111.745 26.0834 111.404L26.836 112.156Z" fill="#2C2D35"/>
<path d="M34.607 114.414C27.6201 107.896 21.3149 100.678 14.296 94.2272L5.01562 84.4569C9.80492 80.0333 15.4214 76.8097 21.3965 74.2499C23.8462 73.199 29.6296 71.6298 31.2307 70.0393C32.6863 68.5944 33.9502 66.0914 35.4733 64.5045C37.3443 62.5589 40.1312 60.837 42.4602 59.456C43.1809 59.03 47.3738 56.9886 47.5229 56.7436C47.6933 56.4631 47.7501 53.5377 47.6542 53.1472C47.5939 52.9058 46.8341 52.7815 46.5075 52.4868C45.6519 51.7164 44.459 46.423 44.2034 45.01C43.9904 43.8526 44.2495 42.8905 43.8058 41.6443C43.3868 40.4728 42.1265 39.1024 41.4945 37.9343C37.607 30.7379 38.6934 25.2634 42.4922 18.3582C43.1738 17.1227 44.175 16.6718 44.6046 15.9582C44.9915 15.3121 44.9844 14.3322 45.2649 13.6115C47.5158 7.85297 59.5334 3.56426 65.3203 3.55361C70.4682 3.54296 83.3059 8.08019 85.3083 13.1784C85.6136 13.9594 85.603 14.9783 85.8976 15.5961C86.1923 16.2138 87.3284 16.7961 87.829 17.4245C91.5248 22.0647 92.5686 29.5025 90.4632 34.9841C89.5863 37.2633 87.4455 39.5923 86.8313 41.6337C85.926 44.6372 86.2775 50.5661 83.3379 52.6927C83.1 52.8632 82.5284 52.9519 82.5036 52.9874C82.4539 53.0549 82.7663 53.9779 82.7663 54.3436C82.7663 54.8797 82.4645 56.5483 82.603 56.7436C82.7734 56.985 84.4278 57.3897 84.9426 57.6667C87.4775 59.0264 92.2384 61.6927 94.404 63.5139C97.8123 66.379 98.4123 70.0429 102.893 71.8286C108.002 73.8665 113.217 75.3576 118.027 78.2617C119.923 79.4049 121.958 81.2191 123.758 82.5646C124.031 82.767 125.668 84.251 125.625 84.4321L65.3239 145.507C62.7428 142.71 60.1085 139.933 57.4245 137.235C57.4849 136.365 56.5725 135.424 55.6707 135.481C55.5855 135.396 55.5039 135.314 55.4187 135.229C55.6317 133.923 53.9879 133.713 53.5512 133.209C50.6151 129.822 47.2708 125.835 43.7667 122.931C43.3939 122.622 43.1987 122.345 42.6306 122.438C42.549 122.352 42.4638 122.271 42.3786 122.186C42.1904 121.997 41.8815 121.688 41.6259 121.433C41.459 121.266 41.2922 121.099 41.1253 120.932C41.2176 120.364 40.9407 120.165 40.6318 119.796C38.9348 117.751 36.4425 116.129 34.6035 114.414H34.607ZM51.1583 11.847C51.0305 11.9571 50.7004 11.9713 50.4909 12.1701C50.1323 12.5145 47.388 15.8766 47.6507 16.1073C50.8246 14.9393 53.7607 13.2849 56.9275 12.0991C57.4387 11.9074 58.1914 11.9748 58.4328 11.3464C58.5145 11.3464 58.6032 11.3393 58.6849 11.3464C59.0222 11.3748 59.3452 11.5843 59.6861 11.602C59.7322 11.6659 59.2636 12.7488 59.1855 12.8517C56.8139 15.9618 48.4353 17.989 45.3927 21.7558C43.685 23.8682 41.8993 28.5865 43.259 31.1569C46.3158 26.9321 50.5299 23.4954 55.0033 20.8327C57.737 19.2067 60.5701 17.9464 63.4422 16.7322C68.2351 14.7085 73.138 13.0967 78.1297 11.6091C79.3474 10.0044 73.6989 9.41864 73.1593 9.28018C71.5617 8.8648 70.2055 8.07309 68.7108 7.58315C63.5558 5.88968 55.1985 8.41391 51.1583 11.847ZM88.0207 30.7805C88.2017 30.0527 88.0207 27.951 88.0207 27.0173C88.0207 25.8066 85.887 22.2315 85.003 21.2552C82.3012 18.2836 78.8859 16.7925 74.8457 17.1014C74.4019 17.1369 70.209 18.0032 70.2126 18.241C70.2232 18.7026 70.4966 18.7239 70.8268 18.8801C76.5533 21.6031 80.3592 22.1321 84.8894 27.3865C85.4006 27.9794 87.3 30.9261 87.5165 31.0291C87.7615 31.1427 87.9887 30.9013 88.0171 30.777L88.0207 30.7805ZM82.2515 34.1639C81.5273 26.2895 70.88 21.2552 63.8257 21.88C59.3204 22.2812 52.2128 26.0268 49.8554 29.9782C49.5181 30.5427 47.5477 34.487 49.0211 34.1639C49.2377 34.1178 51.5595 31.7498 52.3796 31.2492C54.9891 29.6587 58.0813 29.3675 60.9357 30.532C65.2032 32.2717 63.4209 36.5426 63.4422 40.1852C62.2174 39.9154 61.4186 38.868 61.1736 37.6894C59.4056 38.2077 57.8825 39.7627 55.8021 39.6953C53.7216 39.6278 51.8506 37.1639 50.5477 37.1852C50.0045 37.1923 48.8365 38.2751 48.627 38.7864C47.9986 40.3236 48.3323 42.8159 49.2909 44.1828C51.1264 46.8029 55.4115 46.4088 54.9181 50.4703C56.679 50.2857 58.8304 49.1425 59.5547 47.4561C59.8813 46.6928 60.1831 43.9662 61.3085 43.9449L61.4363 45.4538C62.1677 45.6881 62.7073 44.8857 63.2967 44.9425C63.641 44.9745 63.9357 45.3757 64.3298 45.4431C65.9771 45.7165 67.3511 44.7437 68.828 45.7094C69.2256 45.7094 68.5582 43.6644 69.3286 43.9556C70.983 44.5804 70.3013 47.5839 72.4812 49.3271C72.893 49.6573 74.8102 50.836 75.2113 50.4596C75.2539 50.417 75.293 49.604 75.3995 49.2738C76.3226 46.4478 77.409 47.1756 79.3545 45.7023C81.7048 43.9236 82.5426 41.3106 81.8716 38.4278C81.2397 35.7296 78.6054 38.3568 77.3024 38.8822C75.5664 39.5781 74.2599 39.681 72.4741 39.0598C71.7853 38.8183 70.5037 37.8172 70.0954 37.7817C69.0552 37.6929 69.751 38.9532 69.1085 39.4645C68.8102 39.7024 67.6848 39.8337 67.4789 39.6597C66.925 39.1911 67.2517 33.6243 67.5641 32.6515C68.4623 29.8468 75.8788 29.0196 78.0444 30.9226L82.248 34.1675L82.2515 34.1639ZM56.6115 34.4586C54.5985 34.803 53.7997 36.7485 56.1074 37.3663C59.4908 38.268 59.7535 33.9225 56.6115 34.4586ZM72.3143 36.8373C73.5072 38.0053 76.777 37.5757 76.1912 35.6018C75.538 33.3864 70.1238 34.7 72.3143 36.8373ZM62.8777 51.6561C63.7334 50.7898 61.873 49.32 61.0423 49.217C56.8707 48.6952 52.8838 56.7542 52.9157 60.2477C55.6601 58.3199 56.9098 54.9472 59.7606 53.1791C60.4494 52.7531 62.5014 52.0359 62.8742 51.6596L62.8777 51.6561ZM77.7391 60.2441C77.7249 56.9921 73.8871 49.3839 70.3226 49.2277C69.3925 49.1886 66.5416 50.5235 67.3653 51.23C68.8777 52.533 70.9936 53.0513 72.4741 54.3472C73.106 54.901 77.1036 60.9542 77.7356 60.2406L77.7391 60.2441ZM70.312 57.6454C69.4848 56.811 69.3215 56.2501 67.9724 55.8454C63.9286 54.6241 59.6115 56.5803 58.0565 60.4998C56.8459 63.5565 59.86 65.4914 62.3772 66.4571C64.9333 67.437 66.1617 67.4654 68.7073 66.3896C74.0042 64.153 74.1995 61.5648 70.312 57.6489V57.6454ZM84.2609 62.7542C88.965 70.2452 92.5189 79.7173 94.7236 88.277C96.4064 94.8201 97.1768 101.097 96.804 107.889C97.3898 108.016 97.2052 107.814 97.365 107.566C101.114 101.732 105.36 85.6498 101.316 79.5505C101.029 77.7647 99.662 76.9375 98.849 75.6239C94.12 67.9766 93.5697 66.6027 85.3473 62.4134C84.9994 62.2358 84.087 60.8051 83.2633 61.366C83.5473 61.8631 83.9663 62.2678 84.2645 62.7471L84.2609 62.7542ZM30.3467 78.3008C29.5018 79.3339 28.7527 79.9836 28.2237 81.567C26.4663 86.8214 29.5444 97.6355 31.4083 102.947C31.8946 104.335 32.7431 106.248 33.6059 107.392C33.3964 100.348 34.5076 93.3574 36.2331 86.5693C37.5751 81.2901 39.8224 75.3576 42.1726 70.4405C43.5501 67.5577 45.4069 65.4204 46.401 62.2536C46.4613 62.0654 46.6566 61.9447 46.6531 61.753C46.0886 61.3802 43.0993 62.9956 42.4105 63.4003C39.2117 65.282 34.536 69.7588 32.6508 72.947C32.0082 74.0334 30.8544 77.6901 30.3538 78.3008H30.3467ZM74.7072 79.2806C74.0114 73.5754 64.7984 74.0618 60.6375 74.8641C59.931 74.999 57.6731 75.5706 57.3145 76.0535C56.8707 76.6463 56.7571 78.2901 55.9299 78.9292C57.5985 79.5185 59.0328 81.5599 60.8115 81.5812C61.7807 81.5919 62.9523 81.1019 64.0635 81.0487C66.0801 80.9493 67.6422 81.7126 69.5629 81.528C71.1747 81.3717 70.7593 80.8996 71.5368 80.5019C72.5557 79.98 73.6137 79.5931 74.7108 79.2806H74.7072ZM104.824 77.5481C105.733 80.1931 106.631 84.2013 107.047 86.9883C107.629 90.9219 107.632 94.8911 107.586 98.8639C108.168 99.0201 108.005 98.7254 108.161 98.5479C110.128 96.2651 111.839 93.3574 113.728 91.0888C115.272 89.232 117.342 87.9646 118.876 85.9516C119.171 85.5611 119.334 84.8652 119.377 84.8226C119.409 84.7906 120.097 84.9824 119.877 84.4498C119.558 83.6794 117.921 82.38 117.2 81.8581C113.359 79.0818 108.261 77.4558 103.954 75.5493C104.022 76.2523 104.611 76.902 104.835 77.5517L104.824 77.5481ZM11.0369 85.8238C11.1043 85.9054 11.1398 86.2888 11.3954 86.58C12.3008 87.6166 13.5007 88.5397 14.4238 89.5835C14.5374 89.6332 15.3185 87.5563 16.0498 87.8297C16.1563 89.3918 16.9835 90.7302 17.7007 92.0722L23.5728 99.6165C23.5515 98.4059 23.6083 97.1846 23.587 95.9704C23.4947 91.103 23.587 83.1256 25.3338 78.5528C25.5326 78.0309 26.6047 76.9375 26.8355 76.1671C26.9385 75.8156 26.8107 75.7197 26.4698 75.8014C23.8462 76.9552 21.1374 77.9102 18.5599 79.1777C17.296 79.799 10.6073 83.3599 10.341 84.251C9.87238 85.8131 10.8345 85.5788 11.0404 85.8273L11.0369 85.8238ZM53.3524 80.0901C52.4826 80.2108 49.4116 82.5824 48.7655 83.3031C48.2507 83.8782 46.8661 86.6581 46.6318 87.4391C46.4756 87.961 45.8365 91.6604 45.9182 91.9231C45.9856 92.1397 47.8459 93.3929 48.1371 93.4817C49.8199 93.9965 51.1015 92.2888 52.4329 91.4864C53.3098 90.9574 56.7251 89.3243 56.9914 88.7705C57.2186 88.2947 57.1689 87.6522 57.3571 87.1303C57.6269 86.3705 58.8162 83.722 58.66 83.2321L53.9062 80.1753C53.7323 80.0368 53.5583 80.0617 53.3559 80.0901H53.3524ZM84.9852 92.3136C84.6905 89.8249 84.2148 84.7445 82.0953 83.1007C81.4456 82.5966 77.6184 80.8073 76.8658 80.7859C74.8315 80.7256 72.7368 82.7315 70.7203 83.0723C71.37 84.6096 71.6398 88.8876 72.8504 89.8391C73.6705 90.4817 75.8113 91.2237 76.9084 91.7989C77.7675 92.2533 79.3865 93.6237 80.1817 93.8012C81.6728 94.1349 83.5793 92.7397 84.9852 92.3136ZM49.653 118.674C49.5146 119.36 49.8696 119.399 50.2211 119.739C50.8637 120.361 53.0222 121.87 53.7962 122.186C54.3749 122.42 54.0766 121.859 54.0625 121.671C53.8246 119.107 53.2849 120.009 51.5844 119.37C51.2471 119.242 51.2045 118.948 51.1619 118.926C52.8199 119.001 54.2293 118.969 55.8092 118.433C56.7216 118.124 59.3346 116.69 59.0861 115.664C57.8683 114.364 57.4636 111.119 56.4305 110.015C56.1678 109.735 50.3205 106.263 49.8376 106.078C48.1584 105.439 47.5726 106.749 46.1702 107.551C46.472 109.358 46.7099 110.917 46.1454 112.653C46.1596 111.432 45.9963 109.089 45.5596 107.842C45.2756 107.026 45.0199 106.55 44.1359 107.136C42.7052 103.884 40.3904 102.741 40.8768 98.484C41.1537 96.0663 43.3975 94.5432 43.9691 92.548C44.3773 91.1243 44.3986 88.6817 44.7111 87.0238C44.8673 86.1965 45.1051 85.3587 45.3892 84.5705C44.846 84.1622 43.9407 85.5859 43.6779 85.9906C39.6662 92.2355 39.3928 102.403 41.9419 109.202C42.8756 111.695 47.0436 118.025 49.6495 118.671L49.653 118.674ZM85.2657 84.5705C86.2952 87.0415 86.3095 90.0415 87.0053 92.4841C87.2112 93.2154 89.7213 97.6 90.1544 97.6071C90.6372 97.6142 90.5272 96.3254 90.5023 96.013C90.2041 92.4379 88.0846 86.8853 85.2692 84.5705H85.2657ZM63.4067 94.8911C62.0612 94.5468 58.4719 91.0533 57.3429 91.1492C55.8482 91.2734 51.5844 95.1894 49.6814 95.3811C49.2767 98.1467 49.3761 100.873 49.7808 103.628C50.0045 104.001 55.9938 107.466 56.6115 107.59C58.021 107.871 63.0517 104.885 63.3961 103.703C63.5594 103.142 63.6446 95.2639 63.4067 94.8911ZM71.409 91.6355C71.2031 91.6781 68.1925 93.4568 67.7309 93.7444C66.8682 94.2805 65.9949 94.8379 65.3203 95.6154C65.7819 97.4615 64.9085 102.968 65.9629 104.25C66.6268 105.056 71.0682 107.7 72.0978 107.658C73.7699 107.59 77.803 104.26 79.6385 103.643C80.4906 102.808 79.7805 101.047 79.7415 100.004C79.7024 98.9597 80.0042 96.7799 79.5178 95.9633C79.1557 95.3562 72.0055 91.5113 71.4126 91.6355H71.409ZM107.458 99.116V99.368C107.622 99.2828 107.622 99.2012 107.458 99.116ZM85.7663 113.661C88.1165 111.389 89.6396 107.889 90.2147 104.697C90.4668 103.295 90.8928 101.104 90.1508 99.8721C89.707 100.792 89.5082 101.885 89.068 102.801C88.6278 103.717 87.2361 105.563 87.0692 106.319C86.9023 107.076 87.1225 107.96 86.9911 108.748C86.7106 110.42 85.9296 111.971 85.7663 113.665V113.661ZM84.971 106.93C84.7047 106.504 81.3462 105.517 80.6397 105.641C80.3876 105.684 77.2492 107.235 76.7273 107.505C76.2054 107.775 72.7581 109.724 72.6125 109.912C72.1404 110.523 70.5428 115.291 70.7061 115.994C70.8055 116.427 74.0646 118.405 74.7285 118.557C75.8894 118.823 77.0717 118.621 78.2397 118.681C78.222 119.388 77.5013 119.636 77.1853 120.258C76.9545 120.709 76.848 121.429 76.738 121.941C77.0859 122.296 82.1024 118.415 82.6243 117.922C83.6041 116.995 84.3923 116.207 84.5237 114.808C84.6337 113.647 84.2894 112.312 84.3462 111.322C84.403 110.331 85.5142 107.807 84.971 106.937V106.93ZM56.6754 120.684C57.4281 124.088 59.5831 124.266 62.6008 124.66C64.9085 124.962 66.712 125.008 69.0161 124.617C71.7569 124.156 73.4291 123.787 74.2102 120.829L69.9818 118.032C68.7925 117.219 67.5144 117.918 66.3428 117.932C65.3345 117.943 61.5854 117.577 61.1204 117.716C60.3784 117.936 57.9358 120.659 56.679 120.684H56.6754Z" fill="#01060F"/>
<path d="M115.358 52.4728L115.109 52.8456L115.358 52.9734C115.475 55.9521 115.358 59.0124 115.358 62.0017C114.914 63.7236 115.084 65.836 115.102 67.6467C115.106 68.0691 114.942 68.7614 115.358 69.0206C115.358 69.3543 115.365 69.6881 115.358 70.0253C114.367 69.8798 115.042 71.5732 114.854 72.0312C114.666 72.2407 111.847 70.5579 111.342 70.3946C110.973 70.2774 110.505 70.3413 110.341 70.2774C107.597 69.2336 102.421 67.0609 100.433 65.0159C98.6894 63.223 97.6598 61.5473 95.5261 59.8929C93.1226 58.029 89.8776 55.9876 87.0232 54.9793C86.7072 54.6279 89.4232 48.8196 89.6682 47.7226C90.0338 46.0753 89.8492 44.2114 90.3534 42.6386C90.79 41.2753 92.1675 39.7132 92.835 38.3499C93.8291 36.3227 94.2941 34.4553 94.8018 32.2861C94.8728 31.9879 94.6172 31.8316 95.1675 31.9097C101.906 38.3748 108.122 45.4256 115.23 51.4752C115.45 51.7841 115.326 52.1391 115.358 52.4693V52.4728ZM96.2219 41.215C95.9805 41.2789 95.3379 41.9605 95.1817 42.2055C94.3119 43.5652 95.7888 45.7593 97.2835 44.5558C98.9343 43.228 97.0989 40.9878 96.2219 41.215ZM102.566 46.2066C101.842 45.4327 101.217 49.551 101.079 49.8563C100.067 52.1249 95.977 52.1604 95.5474 52.7285C95.3379 53.0018 95.7107 53.2859 95.9805 53.4172C97.4468 54.1237 99.3923 53.6657 100.695 55.2243C101.92 56.687 101.221 58.2775 102.193 59.7438C103.134 57.8657 102.737 55.558 104.899 54.429C105.982 53.861 107.338 54.0172 108.335 53.3498C108.506 52.5403 104.633 51.9048 103.816 50.8539C103.117 49.9522 102.79 47.3853 102.57 46.2066H102.566ZM108.744 60.5142C108.328 60.5852 106.784 62.1047 107.316 62.8893C108.722 64.9698 109.702 64.2775 110.824 62.41C110.458 62.055 109.163 60.4396 108.744 60.5142Z" fill="#01060F"/>
<path d="M15.5496 52.8495C15.5496 52.775 15.3189 52.5797 15.3082 52.3383C20.1117 46.9739 25.5329 41.9964 30.6027 36.8059C32.2039 35.1692 33.6879 33.4332 35.3388 31.8249C35.5305 31.6367 35.4772 31.5657 35.8607 31.658C35.9246 32.8651 36.1482 34.2071 36.5672 35.3397C37.3589 37.4876 39.9577 40.8213 40.4547 42.7348C40.8346 44.2011 40.7671 45.891 41.2002 47.5064C41.6121 49.0437 44.0405 53.6625 43.515 54.7276C43.334 55.0968 40.1139 56.6732 39.3932 57.1311C37.0997 58.5832 34.3731 60.337 32.6086 62.382C30.095 65.2967 30.7554 65.7476 26.9247 67.7322C23.1614 69.6813 19.075 71.1014 15.3011 73.0328C15.1804 72.7168 15.5496 72.4612 15.5496 72.4044C15.5496 65.8861 15.61 59.3607 15.5496 52.846V52.8495ZM35.2181 41.3289C34.9873 41.1017 34.863 40.7822 34.54 40.6189C33.6914 40.1822 31.8631 42.1171 32.6264 43.2922C33.2903 44.3112 34.4015 44.6555 35.3388 43.807C36.5175 42.7384 36.1766 42.2804 35.2145 41.3325L35.2181 41.3289ZM27.3365 47.2082C27.1945 47.2508 25.959 47.723 25.888 47.7727C25.7531 47.8721 25.856 48.188 25.8312 48.2093C25.8134 48.2271 25.4371 48.2306 25.3306 48.2093C25.3022 48.2058 24.9969 47.7975 24.83 47.9608C24.7696 48.0176 24.8833 48.3585 24.83 48.4614C24.5921 48.9016 24.191 49.2105 23.9424 49.7076C22.3413 52.9276 22.7993 55.7892 25.9554 57.7418C26.1826 57.7489 26.4312 54.8448 27.3365 55.7359C27.8122 56.2045 26.1826 56.9536 26.7045 57.9939C27.0525 58.6862 29.314 58.9311 28.8453 57.7418C30.6595 59.1903 33.7412 56.1371 34.1885 54.4365C35.3068 50.1726 31.7282 45.9407 27.34 47.2117L27.3365 47.2082ZM22.2454 60.7773C21.9614 60.8518 20.5555 62.2861 20.5555 62.6305C20.5555 63.0139 22.043 64.5192 22.4442 64.5192C22.9413 64.5192 24.1483 63.2092 24.088 62.6411C24.0418 62.1903 22.8454 60.6139 22.2419 60.7773H22.2454Z" fill="#01060F"/>
<path d="M42.6345 122.438C43.2026 122.346 43.4014 122.622 43.7706 122.931C47.2747 125.835 50.6191 129.819 53.5551 133.209C53.9918 133.713 55.632 133.923 55.4226 135.229C51.1658 130.966 46.8842 126.716 42.6345 122.441V122.438Z" fill="#2C2D35"/>
<path d="M115.358 70.0257C115.344 70.86 115.373 71.7014 115.358 72.5357C115.071 72.8162 110.764 70.9204 110.345 70.2778C110.509 70.3417 110.977 70.2778 111.347 70.3949C111.854 70.5582 114.67 72.2446 114.858 72.0316C115.046 71.5736 114.371 69.8801 115.362 70.0257H115.358Z" fill="#2C2D35"/>
<path d="M34.6071 114.414C36.4461 116.129 38.9384 117.751 40.6354 119.796C40.9443 120.169 41.2212 120.364 41.1289 120.932C38.9668 118.756 36.7017 116.658 34.6106 114.414H34.6071Z" fill="#2C2D35"/>
<path d="M115.358 69.024C114.943 68.7648 115.106 68.0725 115.103 67.65C115.085 65.8394 114.915 63.727 115.358 62.0051C115.358 64.3412 115.38 66.6915 115.358 69.0275V69.024Z" fill="#2C2D35"/>
<path d="M57.4286 137.232C56.8464 136.65 56.257 136.06 55.6748 135.478C56.5801 135.425 57.4925 136.366 57.4286 137.232Z" fill="#2C2D35"/>
<path d="M41.6296 121.433C41.8853 121.689 42.1941 121.997 42.3823 122.186C41.8427 122.278 41.7823 121.866 41.6296 121.433Z" fill="#2C2D35"/>
<path d="M115.358 52.9735L115.109 52.8457L115.358 52.4729C115.372 52.6362 115.351 52.8102 115.358 52.9735Z" fill="#2C2D35"/>
<path d="M82.2518 34.1644L78.0483 30.9195C75.8827 29.0166 68.4662 29.8438 67.568 32.6485C67.2556 33.6212 66.9289 39.188 67.4828 39.6567C67.6887 39.8306 68.8106 39.6993 69.1123 39.4614C69.7549 38.9502 69.0555 37.6863 70.0993 37.7786C70.5076 37.8141 71.7928 38.8153 72.478 39.0567C74.2638 39.678 75.5703 39.575 77.3063 38.8792C78.6093 38.3573 81.2471 35.7265 81.8755 38.4247C82.5501 41.3075 81.7087 43.9205 79.3584 45.6992C77.4128 47.1726 76.3265 46.4483 75.4034 49.2708C75.2969 49.601 75.2578 50.414 75.2152 50.4566C74.8141 50.8329 72.8934 49.6542 72.4851 49.324C70.3052 47.5809 70.9869 44.5773 69.3325 43.9525C68.562 43.6614 69.2295 45.7099 68.8319 45.7063C67.3514 44.7442 65.981 45.7134 64.3337 45.4401C63.9396 45.3761 63.6449 44.975 63.3006 44.9395C62.7148 44.8827 62.1716 45.685 61.4402 45.4507L61.3124 43.9418C60.1834 43.9631 59.8852 46.6897 59.5586 47.453C58.8343 49.1359 56.6829 50.2826 54.9219 50.4672C55.4154 46.4057 51.1303 46.8033 49.2948 44.1797C48.3362 42.8129 48.0025 40.3206 48.6309 38.7833C48.8404 38.2685 50.0048 37.1892 50.5516 37.1821C51.8545 37.1644 53.7468 39.6283 55.806 39.6922C57.8651 39.7561 59.4095 38.2046 61.1775 37.6863C61.4225 38.8685 62.2213 39.9158 63.4461 40.1821C63.4248 36.5431 65.207 32.2721 60.9396 30.529C58.0852 29.3645 54.993 29.6556 52.3835 31.2461C51.5634 31.7467 49.2415 34.1112 49.025 34.1609C47.5516 34.4839 49.522 30.5396 49.8593 29.9751C52.2167 26.0237 59.3243 22.2782 63.8295 21.877C70.8839 21.2486 81.5311 26.2864 82.2554 34.1609L82.2518 34.1644Z" fill="#FEFFEF"/>
<path d="M84.2611 62.7546C84.8576 62.9748 85.4007 63.0813 85.9581 63.4256C92.3593 67.3948 94.958 72.4717 99.5592 77.9249C99.9142 78.3474 100.986 79.061 101.313 79.5545C105.357 85.6503 101.111 101.736 97.3616 107.57C97.2018 107.815 97.3864 108.02 96.8006 107.893C97.1734 101.101 96.4066 94.8241 94.7202 88.281C92.5155 79.7213 88.9617 70.2492 84.2576 62.7582L84.2611 62.7546Z" fill="#3B9CF1"/>
<path d="M46.3944 62.254C45.4003 65.4209 43.5435 67.5581 42.166 70.4409C39.8157 75.358 37.5684 81.2941 36.2264 86.5698C34.501 93.3614 33.3898 100.348 33.5992 107.392C32.7365 106.249 31.888 104.339 31.4016 102.947C29.5378 97.6359 26.4597 86.8218 28.2171 81.5674C28.746 79.984 29.4951 79.3343 30.3401 78.3012C30.2727 79.5438 31.4442 78.0882 31.5863 77.9178C34.146 74.8859 35.9495 70.093 39.4856 67.512L46.3873 62.254H46.3944Z" fill="#3B9CF1"/>
<path d="M68.7147 7.58728C70.2058 8.07722 71.5656 8.86892 73.1632 9.2843C73.7028 9.42276 79.3513 10.0121 78.1336 11.6133C73.1383 13.1008 68.2354 14.7127 63.4461 16.7363C60.5704 17.9505 57.7409 19.2073 55.0072 20.8368C50.5338 23.4995 46.3197 26.9362 43.2629 31.161C41.9032 28.5871 43.6889 23.8723 45.3966 21.7599C48.4392 17.9931 56.8178 15.9694 59.1894 12.8559C59.6616 12.8843 60.045 12.6961 60.4533 12.4902C62.413 11.4997 62.7858 9.70678 64.7065 8.84052C66.0627 8.23343 67.4686 8.34349 68.7183 7.58728H68.7147Z" fill="#3B9CF1"/>
<path d="M63.407 94.8914C63.6449 95.2641 63.5561 103.142 63.3964 103.703C63.052 104.885 58.0213 107.868 56.6118 107.591C55.9941 107.47 50.0083 104.001 49.7811 103.629C49.3764 100.874 49.277 98.1434 49.6817 95.3813C51.5882 95.1896 55.8485 91.2772 57.3432 91.1494C58.4722 91.0535 62.0615 94.547 63.407 94.8914Z" fill="#FEFFEF"/>
<path d="M71.4093 91.636C72.0022 91.5117 79.1524 95.3567 79.5145 95.9638C80.0009 96.7768 79.6956 98.914 79.7382 100.004C79.7808 101.094 80.4873 102.809 79.6352 103.643C77.7997 104.264 73.7631 107.591 72.0945 107.658C71.0649 107.701 66.6235 105.056 65.9596 104.25C64.9052 102.968 65.7821 97.462 65.317 95.6158C65.9916 94.8383 66.8685 94.2809 67.7276 93.7449C68.1892 93.4573 71.1962 91.6786 71.4057 91.636H71.4093Z" fill="#FEFFEF"/>
<path d="M49.6534 118.675C47.0475 118.029 42.8795 111.698 41.9458 109.206C39.3967 102.407 39.6701 92.2394 43.6819 85.9945C43.9446 85.5862 44.8464 84.1661 45.3931 84.5744C45.1091 85.3626 44.8712 86.2004 44.715 87.0276C44.399 88.6892 44.3777 91.1317 43.973 92.5518C43.4014 94.5471 41.1577 96.0702 40.8807 98.4879C40.3944 102.745 42.7091 103.891 44.1399 107.14C44.1683 107.207 44.2748 107.797 44.3919 108.145C44.2109 109.078 44.5162 109.874 44.644 110.651C44.8251 111.755 44.7541 113.278 45.8937 113.91C45.8369 113.495 46.1422 113.016 46.1458 112.657C46.7103 110.921 46.4724 109.362 46.1706 107.555C47.573 106.753 48.1588 105.446 49.838 106.082C50.3209 106.267 56.1682 109.739 56.4309 110.019C57.464 111.123 57.8687 114.365 59.0865 115.668C59.335 116.694 56.722 118.128 55.8096 118.437C54.2297 118.969 52.8167 119.005 51.1623 118.93C50.399 118.533 50.1931 118.813 49.657 118.678L49.6534 118.675Z" fill="#FEFFEF"/>
<path d="M84.9714 106.93C85.5146 107.8 84.4069 110.317 84.3466 111.315C84.2862 112.313 84.6342 113.64 84.5241 114.801C84.3927 116.2 83.601 116.988 82.6247 117.915C82.1028 118.408 77.0899 122.289 76.7384 121.934C76.8484 121.423 76.9549 120.705 77.1857 120.251C77.5017 119.63 78.2224 119.385 78.2401 118.675C77.0721 118.614 75.8863 118.817 74.7289 118.55C74.065 118.398 70.8059 116.42 70.7065 115.987C70.5432 115.288 72.1408 110.52 72.613 109.906C72.7585 109.717 76.2058 107.768 76.7277 107.499C77.2496 107.229 80.388 105.681 80.6401 105.635C81.3466 105.51 84.7052 106.497 84.9714 106.923V106.93Z" fill="#FEFFEF"/>
<path d="M119.37 84.8232C119.327 84.8693 119.168 85.5652 118.869 85.9522C117.339 87.9616 115.269 89.2291 113.721 91.0894C111.833 93.358 110.121 96.2621 108.155 98.5485C108.002 98.726 108.165 99.0242 107.579 98.8645C107.626 94.8917 107.622 90.9225 107.04 86.9888C106.628 84.2019 105.726 80.1972 104.817 77.5487L110.675 79.8422C113.743 81.2126 116.523 83.0587 119.363 84.8232H119.37Z" fill="#3B9CF1"/>
<path d="M25.3305 78.5536C23.5837 83.1264 23.4914 91.1038 23.5837 95.9712C23.6086 97.1854 23.5482 98.4067 23.5695 99.6173L17.6974 92.073C16.9803 90.731 16.1495 89.3926 16.0465 87.8304C15.3116 87.5535 14.5306 89.634 14.4205 89.5843C13.4974 88.544 12.2975 87.6174 11.3921 86.5808C11.1365 86.2896 11.101 85.9027 11.0336 85.8245C11.3921 84.7027 13.0608 83.8187 14.0619 83.2116C16.9057 81.4932 20.9814 79.3915 24.1553 78.4933C24.6133 78.3619 24.876 78.1879 25.3269 78.5536H25.3305Z" fill="#3B9CF1"/>
<path d="M84.9852 92.3142C83.5757 92.7402 81.6692 94.1354 80.1817 93.8017C79.3864 93.6242 77.7675 92.2538 76.9083 91.7994C75.8113 91.2207 73.6705 90.4822 72.8504 89.8396C71.6397 88.8882 71.3699 84.6065 70.7202 83.0728C72.7368 82.732 74.835 80.7297 76.8657 80.7865C77.6184 80.8078 81.442 82.5971 82.0952 83.1012C84.2183 84.745 84.6905 89.8254 84.9852 92.3142Z" fill="#FEFFF6"/>
<path d="M70.3127 57.6454C74.2038 61.5614 74.005 64.1495 68.708 66.3862C66.1625 67.4619 64.9341 67.437 62.3779 66.4536C59.8643 65.488 56.8466 63.5531 58.0572 60.4963C59.6122 56.5768 63.9294 54.6206 67.9731 55.8419C69.3222 56.2502 69.4855 56.8076 70.3127 57.6419V57.6454ZM68.9281 58.0253C68.5234 57.3756 66.0382 57.9685 65.3388 58.0005C64.6003 58.036 61.8631 57.7768 61.5507 58.2241C60.5389 59.662 64.6643 62.0229 65.5376 61.9483C66.7625 61.8418 69.8192 59.4596 68.9281 58.0253Z" fill="#FEFFEF"/>
<path d="M53.3528 80.0905C53.5552 80.0621 53.7291 80.0408 53.9031 80.1757L58.6569 83.2325C58.8167 83.7259 57.6273 86.3744 57.3539 87.1306C57.1658 87.6525 57.2155 88.2951 56.9883 88.7709C56.722 89.3247 53.3102 90.9543 52.4297 91.4868C51.0984 92.2892 49.8167 93.9968 48.1339 93.4821C47.8393 93.3933 45.9825 92.1401 45.915 91.9235C45.8334 91.6608 46.4724 87.9614 46.6286 87.4395C46.8629 86.6585 48.2475 83.8786 48.7623 83.3035C49.4085 82.5828 52.4794 80.2112 53.3493 80.0905H53.3528Z" fill="#FEFFEF"/>
<path d="M74.7075 79.2811C73.614 79.5935 72.5525 79.9805 71.5336 80.5024C70.7561 80.9 71.1714 81.3722 69.5596 81.5284C67.6389 81.7166 66.0768 80.9497 64.0603 81.0491C62.949 81.1024 61.781 81.5959 60.8082 81.5817C59.0296 81.5604 57.5953 79.519 55.9266 78.9296C56.7538 78.2906 56.8675 76.6468 57.3112 76.0539C57.6698 75.5711 59.9313 74.9995 60.6343 74.8646C64.7952 74.0622 74.0081 73.5758 74.704 79.2811H74.7075Z" fill="#FEFFEF"/>
<path d="M56.6759 120.684C57.9327 120.663 60.3788 117.94 61.1173 117.716C61.5824 117.577 65.3314 117.943 66.3397 117.933C67.5113 117.918 68.7894 117.219 69.9787 118.032L74.2071 120.83C73.426 123.787 71.7503 124.156 69.0131 124.618C66.7089 125.005 64.9054 124.958 62.5977 124.66C59.58 124.266 57.425 124.089 56.6724 120.684H56.6759Z" fill="#FEFFEF"/>
<path d="M88.0209 30.7809C87.9889 30.9051 87.7652 31.1501 87.5203 31.0329C87.3002 30.93 85.4008 27.9833 84.8931 27.3904C80.3665 22.136 76.5571 21.607 70.8305 18.8839C70.5003 18.7277 70.227 18.7064 70.2163 18.2449C70.2128 18.007 74.4056 17.1372 74.8494 17.1053C78.8931 16.7964 82.3049 18.2875 85.0067 21.2591C85.8907 22.2318 88.0244 25.8069 88.0244 27.0211C88.0244 27.9549 88.2055 30.0566 88.0244 30.7844L88.0209 30.7809Z" fill="#3B9CF1"/>
<path d="M77.7393 60.2449C77.1038 60.9585 73.1098 54.9053 72.4778 54.3514C70.9974 53.0556 68.8814 52.5372 67.369 51.2343C66.5453 50.5242 69.3962 49.1893 70.3264 49.232C73.8908 49.3846 77.7251 56.9964 77.7429 60.2484L77.7393 60.2449Z" fill="#FEFEFB"/>
<path d="M62.8782 51.6563C62.5019 52.0362 60.4498 52.7498 59.7646 53.1758C56.9138 54.9438 55.6641 58.3166 52.9197 60.2443C52.8878 56.7509 56.8747 48.6954 61.0463 49.2137C61.8771 49.3167 63.7374 50.7865 62.8818 51.6527L62.8782 51.6563Z" fill="#FEFEFB"/>
<path d="M30.3469 78.3012C30.844 77.6905 32.0013 74.0338 32.6439 72.9474C34.5291 69.7592 39.2084 65.2824 42.4036 63.4007C43.0923 62.996 46.0817 61.3806 46.6462 61.7534C46.6497 61.9451 46.4544 62.0658 46.3941 62.254L39.4924 67.5119C35.9563 70.093 34.1528 74.8894 31.5931 77.9177C31.451 78.0882 30.2795 79.5402 30.3469 78.3012Z" fill="#FEFFEF"/>
<path d="M84.2611 62.755C83.9628 62.2758 83.5439 61.871 83.2599 61.374C84.0835 60.813 84.996 62.2438 85.3439 62.4213C93.5663 66.6106 94.1166 67.9846 98.8455 75.6318C99.6585 76.949 101.025 77.7762 101.313 79.5584C100.986 79.0649 99.9142 78.3513 99.5591 77.9288C94.9615 72.4721 92.3592 67.3988 85.9581 63.4296C85.4007 63.0852 84.854 62.9787 84.2611 62.7586V62.755Z" fill="#FEFFEF"/>
<path d="M11.0371 85.8241C10.8276 85.5756 9.86907 85.8064 10.3377 84.2478C10.604 83.3567 17.2962 79.7958 18.5566 79.1745C21.1305 77.907 23.8429 76.952 26.4665 75.7982C26.8109 75.7201 26.9387 75.8159 26.8322 76.1639C26.6014 76.9378 25.5293 78.0277 25.3304 78.5496C24.8796 78.184 24.6168 78.3615 24.1589 78.4893C20.9885 79.391 16.9092 81.4892 14.0655 83.2076C13.0643 83.8147 11.3921 84.6987 11.0371 85.8206V85.8241Z" fill="#FEFFEF"/>
<path d="M68.7144 7.58683C67.4647 8.34304 66.0588 8.23298 64.7026 8.84007C62.9736 9.15604 61.1559 9.259 59.4376 9.59273C56.2707 10.2105 54.698 11.1158 51.8684 12.1809C51.3962 12.3584 51.0554 12.6033 51.1619 11.8471C55.2057 8.41404 63.5594 5.89336 68.7144 7.58328V7.58683Z" fill="#FEFFEF"/>
<path d="M85.266 84.5708C88.0814 86.882 90.2009 92.4346 90.4991 96.0133C90.5239 96.3222 90.6375 97.6145 90.1512 97.6074C89.718 97.6003 87.2115 93.2157 87.0021 92.4843C86.3062 90.0417 86.292 87.0418 85.2625 84.5708H85.266Z" fill="#FEFFF6"/>
<path d="M104.824 77.5486C104.601 76.8989 104.011 76.2528 103.944 75.5463C108.25 77.4528 113.352 79.0788 117.19 81.8551C117.911 82.377 119.547 83.6728 119.867 84.4468C120.087 84.9793 119.398 84.7876 119.366 84.8195C116.526 83.0551 113.746 81.2125 110.679 79.8385L104.821 77.5451L104.824 77.5486Z" fill="#FEFFEF"/>
<path d="M85.7664 113.662C85.9297 111.968 86.7107 110.417 86.9912 108.745C87.1226 107.956 86.8953 107.104 87.0693 106.316C87.2433 105.528 88.6492 103.675 89.0681 102.798C89.487 101.921 89.7071 100.788 90.1509 99.8689C90.8929 101.101 90.4669 103.295 90.2148 104.694C89.6397 107.885 88.1166 111.386 85.7664 113.658V113.662Z" fill="#FEFFEF"/>
<path d="M59.4342 9.5929C60.1904 10.5621 58.6602 10.4485 58.6815 11.3467C58.5999 11.3396 58.5147 11.3467 58.4295 11.3467C57.8969 11.3574 56.6863 11.4674 56.9242 12.0994C53.7573 13.2852 50.8177 14.9396 47.6473 16.1076C47.3846 15.8769 50.129 12.5148 50.4875 12.1704C50.697 11.968 51.0272 11.9538 51.155 11.8473C51.0485 12.6 51.3929 12.3585 51.8615 12.181C54.691 11.116 56.2638 10.2071 59.4306 9.5929H59.4342Z" fill="#3B9CF1"/>
<path d="M72.3147 36.8376C70.1277 34.6967 75.5383 33.3867 76.1916 35.6021C76.7738 37.576 73.5076 38.0056 72.3147 36.8376Z" fill="#FEFFF7"/>
<path d="M64.6993 8.84021C62.7786 9.70292 62.4058 11.4958 60.4461 12.4899C60.0378 12.6958 59.6544 12.8804 59.1822 12.8556C59.2603 12.7526 59.7289 11.6698 59.6828 11.6059C59.342 11.5881 59.0153 11.3786 58.6816 11.3502C58.6603 10.452 60.1905 10.5621 59.4343 9.59642C61.1526 9.26269 62.9703 9.15973 64.6993 8.84376V8.84021Z" fill="#01060F"/>
<path d="M56.612 34.4592C59.754 33.9195 59.4948 38.2651 56.1079 37.3668C53.8002 36.7526 54.599 34.8071 56.612 34.4592Z" fill="#FEFFF7"/>
<path d="M44.1361 107.14C45.0201 106.554 45.2722 107.03 45.5598 107.847C45.9929 109.093 46.1598 111.436 46.1456 112.657C46.142 113.016 45.8331 113.495 45.8935 113.911C44.7539 113.279 44.8213 111.752 44.6438 110.651C45.3254 109.934 44.6296 108.859 44.3917 108.145C44.2746 107.797 44.1716 107.208 44.1397 107.14H44.1361Z" fill="#01060F"/>
<path d="M51.159 118.927C51.2016 118.948 51.2442 119.247 51.5815 119.371C53.282 120.01 53.8217 119.105 54.0595 121.671C54.0773 121.86 54.372 122.421 53.7933 122.186C53.0193 121.87 50.8608 120.365 50.2182 119.74C49.8667 119.403 49.5152 119.36 49.6501 118.675C50.1862 118.806 50.3921 118.529 51.1554 118.927H51.159Z" fill="#01060F"/>
<path d="M58.4326 11.3467C58.1948 11.9751 57.4386 11.9076 56.9273 12.0993C56.6895 11.4674 57.9001 11.3573 58.4326 11.3467Z" fill="#01060F"/>
<path d="M107.459 99.1162C107.622 99.2014 107.622 99.2831 107.459 99.3683V99.1162Z" fill="#3B9CF1"/>
<path d="M102.566 46.2071C102.79 47.3822 103.113 49.9526 103.812 50.8544C104.629 51.9053 108.502 52.5443 108.332 53.3502C107.334 54.0177 105.981 53.865 104.895 54.4295C102.733 55.5585 103.131 57.8661 102.19 59.7442C101.217 58.278 101.916 56.6875 100.691 55.2247C99.3885 53.6662 97.443 54.1242 95.9767 53.4177C95.7034 53.2863 95.3341 53.0023 95.5436 52.7289C95.9732 52.1609 100.063 52.1289 101.075 49.8568C101.213 49.5479 101.838 45.4331 102.562 46.2071H102.566Z" fill="#FEFFEF"/>
<path d="M96.222 41.2154C97.0989 40.9882 98.9344 43.2284 97.2835 44.5562C95.7888 45.7597 94.3119 43.5657 95.1818 42.2059C95.338 41.9609 95.9806 41.2793 96.222 41.2154Z" fill="#FEFFEF"/>
<path d="M108.744 60.5141C109.163 60.4395 110.455 62.0585 110.825 62.4099C109.703 64.2738 108.726 64.9697 107.317 62.8892C106.784 62.1046 108.329 60.5851 108.744 60.5141Z" fill="#FEFFEF"/>
<path d="M27.336 47.208C31.7242 45.937 35.3064 50.1725 34.1845 54.4328C33.7372 56.1334 30.6555 59.1866 28.8414 57.7381C29.31 58.931 27.0485 58.6825 26.7006 57.9902C26.1787 56.9499 27.8082 56.2008 27.3325 55.7322C26.4272 54.8446 26.1787 57.7452 25.9514 57.7381C22.7953 55.7855 22.3373 52.924 23.9385 49.7039C24.187 49.2068 24.5881 48.9015 24.826 48.4577L25.3266 48.2057C25.4331 48.227 25.8094 48.2234 25.8272 48.2057L26.9881 49.4411C28.071 49.0861 27.3964 48.1311 28.8343 48.7062C28.9124 47.7228 27.6769 47.8968 27.3325 47.2045L27.336 47.208ZM31.0106 51.3086C29.7467 50.0447 25.0532 50.6234 25.3763 52.789C25.5254 53.8009 26.8461 55.4233 27.9715 55.4979C28.4899 55.5334 31.0816 54.976 31.3017 54.6742C31.7916 54.0068 31.71 52.0009 31.0141 51.305L31.0106 51.3086Z" fill="#FEFFEF"/>
<path d="M35.2181 41.3288C36.1838 42.2802 36.5211 42.7382 35.3424 43.8033C34.4051 44.6518 33.2939 44.3074 32.63 43.2885C31.8631 42.1169 33.6915 40.1785 34.5436 40.6152C34.8666 40.782 34.9909 41.098 35.2217 41.3252L35.2181 41.3288Z" fill="#FEFFEF"/>
<path d="M22.2452 60.7771C22.8488 60.6173 24.0416 62.1936 24.0913 62.641C24.1517 63.209 22.9446 64.519 22.4476 64.519C22.0428 64.519 20.5588 63.0137 20.5588 62.6303C20.5588 62.2859 21.9612 60.8516 22.2488 60.7771H22.2452Z" fill="#FEFFEF"/>
<path d="M27.3366 47.208C27.6845 47.9003 28.9165 47.7299 28.8384 48.7098C27.4005 48.1346 28.0751 49.0896 26.9922 49.4447L25.8313 48.2092C25.8561 48.1843 25.7532 47.8684 25.8881 47.7725C25.9555 47.7228 27.191 47.2471 27.3366 47.208Z" fill="#FEFFEF"/>
<path d="M25.3305 48.2091L24.8299 48.4611C24.8831 48.3582 24.7731 48.0173 24.8299 47.9605C24.9968 47.8008 25.3021 48.2055 25.3305 48.2091Z" fill="#01060F"/>
<path d="M44.6406 110.652C44.5128 109.874 44.211 109.079 44.3885 108.145C44.6264 108.859 45.3187 109.934 44.6406 110.652Z" fill="#FEFFEF"/>
<path d="M68.9274 58.0256C69.8185 59.4564 66.7618 61.8422 65.5369 61.9487C64.66 62.0232 60.5382 59.6659 61.55 58.2245C61.866 57.7771 64.5997 58.0363 65.3381 58.0008C66.0375 57.9688 68.5227 57.3759 68.9274 58.0256Z" fill="#01060F"/>
<path d="M31.0104 51.3087C31.7027 52.0046 31.7879 54.0069 31.298 54.6779C31.0779 54.9797 28.4862 55.5335 27.9679 55.5016C26.8424 55.427 25.5253 53.8045 25.3726 52.7927C25.0531 50.6271 29.7465 50.0448 31.0069 51.3123L31.0104 51.3087Z" fill="#01060F"/>
<path opacity="0.3" d="M40.8308 101.563C40.8308 101.563 49.7065 121.089 66.0376 120.379C84.8895 119.559 91.2445 100.853 91.2445 100.853C91.2445 100.853 91.9545 122.154 66.7477 124.994C41.5409 127.835 40.8308 101.563 40.8308 101.563Z" fill="#182030"/>
</svg>
