<svg width="45" height="45" viewBox="0 0 45 45" fill="none" xmlns="http://www.w3.org/2000/svg">
<path d="M39.375 22.5C39.3803 25.8502 38.3839 29.1254 36.5138 31.905C34.9714 34.2056 32.8859 36.0908 30.4417 37.3937C27.9974 38.6966 25.2698 39.3771 22.5 39.375C19.7302 39.3771 17.0026 38.6966 14.5583 37.3937C12.1141 36.0908 10.0286 34.2056 8.48625 31.905C7.01762 29.7158 6.08232 27.2129 5.75532 24.5971C5.42833 21.9812 5.71874 19.3252 6.60328 16.8418C7.48781 14.3584 8.94187 12.1168 10.8489 10.2967C12.7559 8.47653 15.0628 7.1285 17.5847 6.36063C20.1066 5.59276 22.7733 5.42642 25.3711 5.87494C27.9689 6.32346 30.4254 7.37436 32.5438 8.9434C34.6622 10.5124 36.3836 12.556 37.5699 14.9102C38.7562 17.2644 39.3744 19.8638 39.375 22.5Z" stroke="#FEFFED" stroke-width="4"/>
<path d="M24.3752 16.875C24.3752 17.3723 24.1776 17.8492 23.826 18.2008C23.4743 18.5525 22.9974 18.75 22.5002 18.75V22.5C23.992 22.5 25.4227 21.9074 26.4776 20.8525C27.5325 19.7976 28.1252 18.3668 28.1252 16.875H24.3752ZM22.5002 18.75C22.0029 18.75 21.526 18.5525 21.1743 18.2008C20.8227 17.8492 20.6252 17.3723 20.6252 16.875H16.8752C16.8752 18.3668 17.4678 19.7976 18.5227 20.8525C19.5776 21.9074 21.0083 22.5 22.5002 22.5V18.75ZM20.6252 16.875C20.6252 16.3777 20.8227 15.9008 21.1743 15.5492C21.526 15.1975 22.0029 15 22.5002 15V11.25C21.0083 11.25 19.5776 11.8426 18.5227 12.8975C17.4678 13.9524 16.8752 15.3832 16.8752 16.875H20.6252ZM22.5002 15C22.9974 15 23.4743 15.1975 23.826 15.5492C24.1776 15.9008 24.3752 16.3777 24.3752 16.875H28.1252C28.1252 15.3832 27.5325 13.9524 26.4776 12.8975C25.4227 11.8426 23.992 11.25 22.5002 11.25V15ZM9.68641 33.48L7.88828 32.9456L7.59766 33.9263L8.26328 34.7006L9.68641 33.48ZM35.3139 33.48L36.7389 34.7006L37.4027 33.9263L37.112 32.9456L35.3139 33.48ZM16.8752 30H28.1252V26.25H16.8752V30ZM16.8752 26.25C14.8559 26.2494 12.8904 26.9007 11.2711 28.1072C9.65185 29.3136 8.46539 31.0106 7.88828 32.9456L11.4827 34.0144C11.8295 32.8538 12.5416 31.8363 13.5132 31.113C14.4848 30.3897 15.6639 29.9993 16.8752 30V26.25ZM22.5002 37.5C20.3354 37.5024 18.196 37.0352 16.2294 36.1304C14.2629 35.2256 12.516 33.9049 11.1095 32.2594L8.26328 34.7006C10.0218 36.7566 12.2053 38.4068 14.6631 39.5374C17.1209 40.6681 19.7947 41.2524 22.5002 41.25V37.5ZM28.1252 30C30.6695 30 32.8239 31.6912 33.5177 34.0163L37.112 32.9456C36.535 31.0109 35.347 29.3141 33.7281 28.1077C32.1092 26.9013 30.1441 26.2498 28.1252 26.25V30ZM33.8908 32.2594C32.4843 33.9049 30.7374 35.2256 28.7709 36.1304C26.8043 37.0352 24.6649 37.5024 22.5002 37.5V41.25C25.2056 41.2524 27.8794 40.6681 30.3372 39.5374C32.7951 38.4068 34.9804 36.7566 36.7389 34.7006L33.8908 32.2594Z" fill="#FEFFED"/>
</svg>
