<svg width="38" height="37" viewBox="0 0 38 37" fill="none" xmlns="http://www.w3.org/2000/svg">
<path d="M17.6084 4.88483C18.1848 3.84893 18.4729 3.33325 18.9037 3.33325C19.3344 3.33325 19.6226 3.84893 20.1989 4.88483L20.3476 5.15176C20.5114 5.446 20.5933 5.59161 20.7207 5.68867C20.8496 5.78574 21.0088 5.82214 21.3274 5.89343L21.6155 5.96016C22.7348 6.21345 23.2945 6.33933 23.428 6.76704C23.5614 7.19475 23.1792 7.64217 22.4163 8.53399L22.2192 8.76452C22.0023 9.01781 21.8931 9.1437 21.8445 9.30143C21.796 9.45917 21.8127 9.62752 21.8445 9.96574L21.8749 10.2736C21.9901 11.4642 22.0478 12.0603 21.7005 12.3242C21.3516 12.5896 20.8268 12.3469 19.7788 11.8646L19.5088 11.7403C19.2101 11.6038 19.0614 11.534 18.9037 11.534C18.7459 11.534 18.5973 11.6038 18.2985 11.7403L18.0285 11.8646C16.9805 12.3469 16.4557 12.5896 16.1069 12.3242C15.7581 12.0603 15.8172 11.4642 15.9325 10.2736L15.9628 9.96574C15.9947 9.62752 16.0113 9.45917 15.9628 9.30143C15.9143 9.1437 15.8051 9.01781 15.5882 8.76452L15.391 8.53399C14.6281 7.64217 14.2459 7.19626 14.3794 6.76704C14.5129 6.33933 15.0725 6.21345 16.1918 5.96016L16.48 5.89343C16.7985 5.82214 16.9578 5.78726 17.0867 5.68867C17.2141 5.59161 17.296 5.446 17.4598 5.15176L17.6084 4.88483ZM20.4204 15.4668H17.387C15.2424 15.4668 14.1701 15.4668 13.5043 16.1341C12.8369 16.7984 12.8369 17.8707 12.8369 20.0169V33.6671H24.9704V20.0169C24.9704 17.8723 24.9704 16.8 24.3031 16.1341C23.6388 15.4668 22.5665 15.4668 20.4204 15.4668Z" fill="#FEFFEF"/>
<path opacity="0.5" d="M12.1691 29.7843C11.5048 29.117 10.4325 29.117 8.2864 29.117C6.14028 29.117 5.0695 29.117 4.40367 29.7843C3.73633 30.4486 3.73633 31.5209 3.73633 33.667H12.8365C12.8365 31.5224 12.8365 30.4501 12.1691 29.7843ZM24.97 29.117V33.667H34.0702V29.117C34.0702 26.9724 34.0702 25.9001 33.4028 25.2342C32.7385 24.5669 31.6662 24.5669 29.5201 24.5669C27.374 24.5669 26.3032 24.5669 25.6374 25.2342C24.97 25.8986 24.97 26.9709 24.97 29.117Z" fill="#FEFFEF"/>
</svg>
