<svg width="39" height="39" viewBox="0 0 39 39" fill="none" xmlns="http://www.w3.org/2000/svg">
<path d="M17.357 27.8014H26.8444V30.1732H17.357V27.8014ZM12.6133 27.8014H14.9851V30.1732H12.6133V27.8014ZM17.357 21.8718H26.8444V24.2436H17.357V21.8718ZM12.6133 21.8718H14.9851V24.2436H12.6133V21.8718ZM17.357 15.9421H26.8444V18.314H17.357V15.9421ZM12.6133 15.9421H14.9851V18.314H12.6133V15.9421Z" fill="#FEFFEF"/>
<path d="M30.1846 7.10821H26.6995V5.94649C26.6995 5.33027 26.4547 4.7393 26.0189 4.30357C25.5832 3.86784 24.9922 3.62305 24.376 3.62305H15.0822C14.466 3.62305 13.8751 3.86784 13.4393 4.30357C13.0036 4.7393 12.7588 5.33027 12.7588 5.94649V7.10821H9.27364C8.65742 7.10821 8.06645 7.353 7.63072 7.78873C7.19499 8.22446 6.9502 8.81544 6.9502 9.43165V33.8278C6.9502 34.444 7.19499 35.035 7.63072 35.4707C8.06645 35.9064 8.65742 36.1512 9.27364 36.1512H30.1846C30.8008 36.1512 31.3918 35.9064 31.8275 35.4707C32.2633 35.035 32.5081 34.444 32.5081 33.8278V9.43165C32.5081 8.81544 32.2633 8.22446 31.8275 7.78873C31.3918 7.353 30.8008 7.10821 30.1846 7.10821ZM15.0822 5.94649H24.376V10.5934H15.0822V5.94649ZM30.1846 33.8278H9.27364V9.43165H12.7588V12.9168H26.6995V9.43165H30.1846V33.8278Z" fill="#FEFFEF"/>
</svg>
