<svg width="18" height="18" viewBox="0 0 18 18" fill="none" xmlns="http://www.w3.org/2000/svg">
<path d="M7.91468 1.19413C8.18134 0.490793 9.19051 0.490793 9.45801 1.19413L11.183 5.97246C11.2432 6.12811 11.3492 6.26186 11.4869 6.35604C11.6247 6.45022 11.7878 6.5004 11.9547 6.49996H16.1938C16.9772 6.49996 17.3188 7.47496 16.703 7.95246L13.6863 10.6666C13.5514 10.7707 13.4528 10.9147 13.4046 11.0781C13.3564 11.2415 13.3611 11.416 13.418 11.5766L14.5197 16.2458C14.788 16.9958 13.9197 17.64 13.263 17.1783L9.16551 14.5783C9.02519 14.4797 8.85785 14.4268 8.68634 14.4268C8.51483 14.4268 8.3475 14.4797 8.20718 14.5783L4.10968 17.1783C3.45384 17.64 2.58468 16.995 2.85301 16.2458L3.95468 11.5766C4.01156 11.416 4.01625 11.2415 3.96806 11.0781C3.91987 10.9147 3.82127 10.7707 3.68634 10.6666L0.669677 7.95246C0.0530098 7.47496 0.396343 6.49996 1.17801 6.49996H5.41718C5.58406 6.5004 5.74715 6.45022 5.88492 6.35604C6.0227 6.26186 6.12866 6.12811 6.18884 5.97246L7.91468 1.19413Z" fill="#FEFFED"/>
</svg>
